<?xml version="1.0" encoding="UTF-8" standalone="no"?>
<!DOCTYPE svg PUBLIC "-//W3C//DTD SVG 1.1//EN"
 "http://www.w3.org/Graphics/SVG/1.1/DTD/svg11.dtd">
<!-- Generated by graphviz version 2.49.1 (20211004.0028)
 -->
<!-- Title: snakemake_dag Pages: 1 -->
<svg width="1215pt" height="636pt"
 viewBox="0.00 0.00 1215.15 636.00" xmlns="http://www.w3.org/2000/svg" xmlns:xlink="http://www.w3.org/1999/xlink">
<g id="graph0" class="graph" transform="scale(1 1) rotate(0) translate(4 632)">
<title>snakemake_dag</title>
<polygon fill="white" stroke="transparent" points="-4,4 -4,-632 1211.15,-632 1211.15,4 -4,4"/>
<!-- 0 -->
<g id="node1" class="node">
<title>0</title>
<path fill="none" stroke="#56d8a2" stroke-width="2" d="M964,-36C964,-36 934,-36 934,-36 928,-36 922,-30 922,-24 922,-24 922,-12 922,-12 922,-6 928,0 934,0 934,0 964,0 964,0 970,0 976,-6 976,-12 976,-12 976,-24 976,-24 976,-30 970,-36 964,-36"/>
<text text-anchor="middle" x="949" y="-15.5" font-family="sans" font-size="10.00">report</text>
</g>
<!-- 1 -->
<g id="node2" class="node">
<title>1</title>
<path fill="none" stroke="#d87d56" stroke-width="2" d="M390,-108C390,-108 360,-108 360,-108 354,-108 348,-102 348,-96 348,-96 348,-84 348,-84 348,-78 354,-72 360,-72 360,-72 390,-72 390,-72 396,-72 402,-78 402,-84 402,-84 402,-96 402,-96 402,-102 396,-108 390,-108"/>
<text text-anchor="middle" x="375" y="-87.5" font-family="sans" font-size="10.00">multiqc</text>
</g>
<!-- 1&#45;&gt;0 -->
<g id="edge1" class="edge">
<title>1&#45;&gt;0</title>
<path fill="none" stroke="grey" stroke-width="2" d="M402.3,-85.67C495.98,-74.25 804.54,-36.62 911.83,-23.53"/>
<polygon fill="grey" stroke="grey" stroke-width="2" points="912.37,-26.99 921.87,-22.31 911.52,-20.05 912.37,-26.99"/>
</g>
<!-- 2 -->
<g id="node3" class="node">
<title>2</title>
<path fill="none" stroke="#9fd856" stroke-width="2" d="M666,-196C666,-196 612,-196 612,-196 606,-196 600,-190 600,-184 600,-184 600,-156 600,-156 600,-150 606,-144 612,-144 612,-144 666,-144 666,-144 672,-144 678,-150 678,-156 678,-156 678,-184 678,-184 678,-190 672,-196 666,-196"/>
<text text-anchor="middle" x="639" y="-184" font-family="sans" font-size="10.00">fastqc</text>
<text text-anchor="middle" x="639" y="-173" font-family="sans" font-size="10.00">lane: 1</text>
<text text-anchor="middle" x="639" y="-162" font-family="sans" font-size="10.00">read: R1</text>
<text text-anchor="middle" x="639" y="-151" font-family="sans" font-size="10.00">sample: D28</text>
</g>
<!-- 2&#45;&gt;1 -->
<g id="edge15" class="edge">
<title>2&#45;&gt;1</title>
<path fill="none" stroke="grey" stroke-width="2" d="M599.79,-147.63C596.85,-146.32 593.9,-145.09 591,-144 530.12,-121.06 455.81,-105.36 412.12,-97.3"/>
<polygon fill="grey" stroke="grey" stroke-width="2" points="412.69,-93.85 402.23,-95.51 411.44,-100.74 412.69,-93.85"/>
</g>
<!-- 3 -->
<g id="node4" class="node">
<title>3</title>
<path fill="none" stroke="#9fd856" stroke-width="2" d="M66,-196C66,-196 12,-196 12,-196 6,-196 0,-190 0,-184 0,-184 0,-156 0,-156 0,-150 6,-144 12,-144 12,-144 66,-144 66,-144 72,-144 78,-150 78,-156 78,-156 78,-184 78,-184 78,-190 72,-196 66,-196"/>
<text text-anchor="middle" x="39" y="-184" font-family="sans" font-size="10.00">fastqc</text>
<text text-anchor="middle" x="39" y="-173" font-family="sans" font-size="10.00">lane: 1</text>
<text text-anchor="middle" x="39" y="-162" font-family="sans" font-size="10.00">read: R2</text>
<text text-anchor="middle" x="39" y="-151" font-family="sans" font-size="10.00">sample: D28</text>
</g>
<!-- 3&#45;&gt;1 -->
<g id="edge16" class="edge">
<title>3&#45;&gt;1</title>
<path fill="none" stroke="grey" stroke-width="2" d="M78.14,-147.43C81.09,-146.17 84.07,-145.01 87,-144 173.95,-114.11 281.77,-100 337.59,-94.29"/>
<polygon fill="grey" stroke="grey" stroke-width="2" points="338.11,-97.76 347.71,-93.29 337.42,-90.79 338.11,-97.76"/>
</g>
<!-- 4 -->
<g id="node5" class="node">
<title>4</title>
<path fill="none" stroke="#9fd856" stroke-width="2" d="M162,-196C162,-196 108,-196 108,-196 102,-196 96,-190 96,-184 96,-184 96,-156 96,-156 96,-150 102,-144 108,-144 108,-144 162,-144 162,-144 168,-144 174,-150 174,-156 174,-156 174,-184 174,-184 174,-190 168,-196 162,-196"/>
<text text-anchor="middle" x="135" y="-184" font-family="sans" font-size="10.00">fastqc</text>
<text text-anchor="middle" x="135" y="-173" font-family="sans" font-size="10.00">lane: 1</text>
<text text-anchor="middle" x="135" y="-162" font-family="sans" font-size="10.00">read: R1</text>
<text text-anchor="middle" x="135" y="-151" font-family="sans" font-size="10.00">sample: D50</text>
</g>
<!-- 4&#45;&gt;1 -->
<g id="edge17" class="edge">
<title>4&#45;&gt;1</title>
<path fill="none" stroke="grey" stroke-width="2" d="M174.24,-147.72C177.18,-146.39 180.11,-145.13 183,-144 235.29,-123.43 298.54,-107.62 337.79,-98.82"/>
<polygon fill="grey" stroke="grey" stroke-width="2" points="338.7,-102.2 347.7,-96.63 337.19,-95.37 338.7,-102.2"/>
</g>
<!-- 5 -->
<g id="node6" class="node">
<title>5</title>
<path fill="none" stroke="#9fd856" stroke-width="2" d="M258,-196C258,-196 204,-196 204,-196 198,-196 192,-190 192,-184 192,-184 192,-156 192,-156 192,-150 198,-144 204,-144 204,-144 258,-144 258,-144 264,-144 270,-150 270,-156 270,-156 270,-184 270,-184 270,-190 264,-196 258,-196"/>
<text text-anchor="middle" x="231" y="-184" font-family="sans" font-size="10.00">fastqc</text>
<text text-anchor="middle" x="231" y="-173" font-family="sans" font-size="10.00">lane: 1</text>
<text text-anchor="middle" x="231" y="-162" font-family="sans" font-size="10.00">read: R2</text>
<text text-anchor="middle" x="231" y="-151" font-family="sans" font-size="10.00">sample: D50</text>
</g>
<!-- 5&#45;&gt;1 -->
<g id="edge18" class="edge">
<title>5&#45;&gt;1</title>
<path fill="none" stroke="grey" stroke-width="2" d="M270.35,-147.69C291.82,-136.06 318.21,-121.76 339.11,-110.44"/>
<polygon fill="grey" stroke="grey" stroke-width="2" points="340.87,-113.47 348,-105.63 337.54,-107.31 340.87,-113.47"/>
</g>
<!-- 6 -->
<g id="node7" class="node">
<title>6</title>
<path fill="none" stroke="#9fd856" stroke-width="2" d="M354,-196C354,-196 300,-196 300,-196 294,-196 288,-190 288,-184 288,-184 288,-156 288,-156 288,-150 294,-144 300,-144 300,-144 354,-144 354,-144 360,-144 366,-150 366,-156 366,-156 366,-184 366,-184 366,-190 360,-196 354,-196"/>
<text text-anchor="middle" x="327" y="-184" font-family="sans" font-size="10.00">fastqc</text>
<text text-anchor="middle" x="327" y="-173" font-family="sans" font-size="10.00">lane: 1</text>
<text text-anchor="middle" x="327" y="-162" font-family="sans" font-size="10.00">read: R1</text>
<text text-anchor="middle" x="327" y="-151" font-family="sans" font-size="10.00">sample: D60</text>
</g>
<!-- 6&#45;&gt;1 -->
<g id="edge19" class="edge">
<title>6&#45;&gt;1</title>
<path fill="none" stroke="grey" stroke-width="2" d="M342.45,-143.89C347.74,-135.3 353.67,-125.67 359,-117.01"/>
<polygon fill="grey" stroke="grey" stroke-width="2" points="362.03,-118.76 364.29,-108.41 356.06,-115.09 362.03,-118.76"/>
</g>
<!-- 7 -->
<g id="node8" class="node">
<title>7</title>
<path fill="none" stroke="#9fd856" stroke-width="2" d="M450,-196C450,-196 396,-196 396,-196 390,-196 384,-190 384,-184 384,-184 384,-156 384,-156 384,-150 390,-144 396,-144 396,-144 450,-144 450,-144 456,-144 462,-150 462,-156 462,-156 462,-184 462,-184 462,-190 456,-196 450,-196"/>
<text text-anchor="middle" x="423" y="-184" font-family="sans" font-size="10.00">fastqc</text>
<text text-anchor="middle" x="423" y="-173" font-family="sans" font-size="10.00">lane: 1</text>
<text text-anchor="middle" x="423" y="-162" font-family="sans" font-size="10.00">read: R2</text>
<text text-anchor="middle" x="423" y="-151" font-family="sans" font-size="10.00">sample: D60</text>
</g>
<!-- 7&#45;&gt;1 -->
<g id="edge20" class="edge">
<title>7&#45;&gt;1</title>
<path fill="none" stroke="grey" stroke-width="2" d="M407.55,-143.89C402.26,-135.3 396.33,-125.67 391,-117.01"/>
<polygon fill="grey" stroke="grey" stroke-width="2" points="393.94,-115.09 385.71,-108.41 387.97,-118.76 393.94,-115.09"/>
</g>
<!-- 8 -->
<g id="node9" class="node">
<title>8</title>
<path fill="none" stroke="#d8c356" stroke-width="2" d="M570,-188C570,-188 492,-188 492,-188 486,-188 480,-182 480,-176 480,-176 480,-164 480,-164 480,-158 486,-152 492,-152 492,-152 570,-152 570,-152 576,-152 582,-158 582,-164 582,-164 582,-176 582,-176 582,-182 576,-188 570,-188"/>
<text text-anchor="middle" x="531" y="-167.5" font-family="sans" font-size="10.00">unpack_bcl2fastq</text>
</g>
<!-- 8&#45;&gt;1 -->
<g id="edge21" class="edge">
<title>8&#45;&gt;1</title>
<path fill="none" stroke="grey" stroke-width="2" d="M496.77,-151.88C471.52,-139.26 437.24,-122.12 411.48,-109.24"/>
<polygon fill="grey" stroke="grey" stroke-width="2" points="412.92,-106.05 402.41,-104.71 409.79,-112.31 412.92,-106.05"/>
</g>
<!-- 9 -->
<g id="node10" class="node">
<title>9</title>
<path fill="none" stroke="#c6d856" stroke-width="2" d="M865,-556C865,-556 811,-556 811,-556 805,-556 799,-550 799,-544 799,-544 799,-532 799,-532 799,-526 805,-520 811,-520 811,-520 865,-520 865,-520 871,-520 877,-526 877,-532 877,-532 877,-544 877,-544 877,-550 871,-556 865,-556"/>
<text text-anchor="middle" x="838" y="-541" font-family="sans" font-size="10.00">counts</text>
<text text-anchor="middle" x="838" y="-530" font-family="sans" font-size="10.00">sample: D28</text>
</g>
<!-- 9&#45;&gt;0 -->
<g id="edge2" class="edge">
<title>9&#45;&gt;0</title>
<path fill="none" stroke="grey" stroke-width="2" d="M798.87,-528.19C774.08,-520.59 743.33,-507.08 725,-484 699.84,-452.33 706,-435.45 706,-395 706,-395 706,-395 706,-169 706,-121.48 714.62,-102.58 751,-72 796.93,-33.4 868.24,-22.65 911.58,-19.82"/>
<polygon fill="grey" stroke="grey" stroke-width="2" points="911.91,-23.3 921.7,-19.26 911.53,-16.31 911.91,-23.3"/>
</g>
<!-- 14 -->
<g id="node15" class="node">
<title>14</title>
<path fill="none" stroke="#56c9d8" stroke-width="2" d="M798,-484C798,-484 746,-484 746,-484 740,-484 734,-478 734,-472 734,-472 734,-460 734,-460 734,-454 740,-448 746,-448 746,-448 798,-448 798,-448 804,-448 810,-454 810,-460 810,-460 810,-472 810,-472 810,-478 804,-484 798,-484"/>
<text text-anchor="middle" x="772" y="-463.5" font-family="sans" font-size="10.00">filter_empty</text>
</g>
<!-- 9&#45;&gt;14 -->
<g id="edge28" class="edge">
<title>9&#45;&gt;14</title>
<path fill="none" stroke="grey" stroke-width="2" d="M821.69,-519.7C813.69,-511.22 803.93,-500.86 795.18,-491.58"/>
<polygon fill="grey" stroke="grey" stroke-width="2" points="797.53,-488.98 788.13,-484.1 792.44,-493.78 797.53,-488.98"/>
</g>
<!-- 17 -->
<g id="node18" class="node">
<title>17</title>
<path fill="none" stroke="#78d856" stroke-width="2" d="M820,-412C820,-412 790,-412 790,-412 784,-412 778,-406 778,-400 778,-400 778,-388 778,-388 778,-382 784,-376 790,-376 790,-376 820,-376 820,-376 826,-376 832,-382 832,-388 832,-388 832,-400 832,-400 832,-406 826,-412 820,-412"/>
<text text-anchor="middle" x="805" y="-391.5" font-family="sans" font-size="10.00">qc</text>
</g>
<!-- 9&#45;&gt;17 -->
<g id="edge31" class="edge">
<title>9&#45;&gt;17</title>
<path fill="none" stroke="grey" stroke-width="2" d="M834.6,-519.88C830.97,-501.92 824.94,-472.9 819,-448 816.98,-439.54 814.62,-430.36 812.42,-422.06"/>
<polygon fill="grey" stroke="grey" stroke-width="2" points="815.72,-420.88 809.75,-412.13 808.96,-422.7 815.72,-420.88"/>
</g>
<!-- 10 -->
<g id="node11" class="node">
<title>10</title>
<path fill="none" stroke="#56a2d8" stroke-width="2" d="M1020,-628C1020,-628 958,-628 958,-628 952,-628 946,-622 946,-616 946,-616 946,-604 946,-604 946,-598 952,-592 958,-592 958,-592 1020,-592 1020,-592 1026,-592 1032,-598 1032,-604 1032,-604 1032,-616 1032,-616 1032,-622 1026,-628 1020,-628"/>
<text text-anchor="middle" x="989" y="-607.5" font-family="sans" font-size="10.00">get_cellranger</text>
</g>
<!-- 10&#45;&gt;9 -->
<g id="edge22" class="edge">
<title>10&#45;&gt;9</title>
<path fill="none" stroke="grey" stroke-width="2" d="M952.06,-591.88C931.51,-582.35 905.75,-570.41 883.91,-560.28"/>
<polygon fill="grey" stroke="grey" stroke-width="2" points="885.36,-557.1 874.82,-556.07 882.42,-563.45 885.36,-557.1"/>
</g>
<!-- 12 -->
<g id="node13" class="node">
<title>12</title>
<path fill="none" stroke="#c6d856" stroke-width="2" d="M962,-556C962,-556 908,-556 908,-556 902,-556 896,-550 896,-544 896,-544 896,-532 896,-532 896,-526 902,-520 908,-520 908,-520 962,-520 962,-520 968,-520 974,-526 974,-532 974,-532 974,-544 974,-544 974,-550 968,-556 962,-556"/>
<text text-anchor="middle" x="935" y="-541" font-family="sans" font-size="10.00">counts</text>
<text text-anchor="middle" x="935" y="-530" font-family="sans" font-size="10.00">sample: D50</text>
</g>
<!-- 10&#45;&gt;12 -->
<g id="edge24" class="edge">
<title>10&#45;&gt;12</title>
<path fill="none" stroke="grey" stroke-width="2" d="M975.65,-591.7C969.24,-583.39 961.44,-573.28 954.39,-564.14"/>
<polygon fill="grey" stroke="grey" stroke-width="2" points="957.07,-561.88 948.19,-556.1 951.53,-566.16 957.07,-561.88"/>
</g>
<!-- 13 -->
<g id="node14" class="node">
<title>13</title>
<path fill="none" stroke="#c6d856" stroke-width="2" d="M1097,-556C1097,-556 1043,-556 1043,-556 1037,-556 1031,-550 1031,-544 1031,-544 1031,-532 1031,-532 1031,-526 1037,-520 1043,-520 1043,-520 1097,-520 1097,-520 1103,-520 1109,-526 1109,-532 1109,-532 1109,-544 1109,-544 1109,-550 1103,-556 1097,-556"/>
<text text-anchor="middle" x="1070" y="-541" font-family="sans" font-size="10.00">counts</text>
<text text-anchor="middle" x="1070" y="-530" font-family="sans" font-size="10.00">sample: D60</text>
</g>
<!-- 10&#45;&gt;13 -->
<g id="edge26" class="edge">
<title>10&#45;&gt;13</title>
<path fill="none" stroke="grey" stroke-width="2" d="M1009.02,-591.7C1019.13,-582.97 1031.54,-572.24 1042.52,-562.75"/>
<polygon fill="grey" stroke="grey" stroke-width="2" points="1044.93,-565.29 1050.21,-556.1 1040.35,-559.99 1044.93,-565.29"/>
</g>
<!-- 11 -->
<g id="node12" class="node">
<title>11</title>
<path fill="none" stroke="#d85656" stroke-width="2" d="M916,-628C916,-628 856,-628 856,-628 850,-628 844,-622 844,-616 844,-616 844,-604 844,-604 844,-598 850,-592 856,-592 856,-592 916,-592 916,-592 922,-592 928,-598 928,-604 928,-604 928,-616 928,-616 928,-622 922,-628 916,-628"/>
<text text-anchor="middle" x="886" y="-607.5" font-family="sans" font-size="10.00">get_reference</text>
</g>
<!-- 11&#45;&gt;9 -->
<g id="edge23" class="edge">
<title>11&#45;&gt;9</title>
<path fill="none" stroke="grey" stroke-width="2" d="M874.13,-591.7C868.5,-583.47 861.65,-573.48 855.43,-564.42"/>
<polygon fill="grey" stroke="grey" stroke-width="2" points="858.27,-562.37 849.73,-556.1 852.5,-566.33 858.27,-562.37"/>
</g>
<!-- 11&#45;&gt;12 -->
<g id="edge25" class="edge">
<title>11&#45;&gt;12</title>
<path fill="none" stroke="grey" stroke-width="2" d="M898.11,-591.7C903.87,-583.47 910.86,-573.48 917.21,-564.42"/>
<polygon fill="grey" stroke="grey" stroke-width="2" points="920.16,-566.3 923.03,-556.1 914.42,-562.29 920.16,-566.3"/>
</g>
<!-- 11&#45;&gt;13 -->
<g id="edge27" class="edge">
<title>11&#45;&gt;13</title>
<path fill="none" stroke="grey" stroke-width="2" d="M928.21,-592.94C955.95,-582.39 992.33,-568.55 1021.3,-557.53"/>
<polygon fill="grey" stroke="grey" stroke-width="2" points="1022.71,-560.74 1030.81,-553.91 1020.22,-554.19 1022.71,-560.74"/>
</g>
<!-- 12&#45;&gt;0 -->
<g id="edge3" class="edge">
<title>12&#45;&gt;0</title>
<path fill="none" stroke="grey" stroke-width="2" d="M923.01,-519.86C894.12,-476.81 823,-359.78 823,-251 823,-251 823,-251 823,-169 823,-122.86 830.31,-107.32 860,-72 874.09,-55.24 894.92,-42.43 912.88,-33.61"/>
<polygon fill="grey" stroke="grey" stroke-width="2" points="914.39,-36.77 921.96,-29.36 911.42,-30.43 914.39,-36.77"/>
</g>
<!-- 15 -->
<g id="node16" class="node">
<title>15</title>
<path fill="none" stroke="#56c9d8" stroke-width="2" d="M1027,-484C1027,-484 975,-484 975,-484 969,-484 963,-478 963,-472 963,-472 963,-460 963,-460 963,-454 969,-448 975,-448 975,-448 1027,-448 1027,-448 1033,-448 1039,-454 1039,-460 1039,-460 1039,-472 1039,-472 1039,-478 1033,-484 1027,-484"/>
<text text-anchor="middle" x="1001" y="-463.5" font-family="sans" font-size="10.00">filter_empty</text>
</g>
<!-- 12&#45;&gt;15 -->
<g id="edge29" class="edge">
<title>12&#45;&gt;15</title>
<path fill="none" stroke="grey" stroke-width="2" d="M951.31,-519.7C959.31,-511.22 969.07,-500.86 977.82,-491.58"/>
<polygon fill="grey" stroke="grey" stroke-width="2" points="980.56,-493.78 984.87,-484.1 975.47,-488.98 980.56,-493.78"/>
</g>
<!-- 18 -->
<g id="node19" class="node">
<title>18</title>
<path fill="none" stroke="#78d856" stroke-width="2" d="M971,-412C971,-412 941,-412 941,-412 935,-412 929,-406 929,-400 929,-400 929,-388 929,-388 929,-382 935,-376 941,-376 941,-376 971,-376 971,-376 977,-376 983,-382 983,-388 983,-388 983,-400 983,-400 983,-406 977,-412 971,-412"/>
<text text-anchor="middle" x="956" y="-391.5" font-family="sans" font-size="10.00">qc</text>
</g>
<!-- 12&#45;&gt;18 -->
<g id="edge33" class="edge">
<title>12&#45;&gt;18</title>
<path fill="none" stroke="grey" stroke-width="2" d="M937.53,-519.87C941.11,-495.67 947.69,-451.21 951.95,-422.39"/>
<polygon fill="grey" stroke="grey" stroke-width="2" points="955.46,-422.59 953.46,-412.19 948.53,-421.57 955.46,-422.59"/>
</g>
<!-- 13&#45;&gt;0 -->
<g id="edge4" class="edge">
<title>13&#45;&gt;0</title>
<path fill="none" stroke="grey" stroke-width="2" d="M1109,-527.78C1133.58,-520.03 1164.13,-506.5 1183,-484 1209.32,-452.61 1207,-435.97 1207,-395 1207,-395 1207,-395 1207,-169 1207,-120.9 1196.42,-102.22 1159,-72 1108.79,-31.46 1031.51,-21.45 986.03,-19.27"/>
<polygon fill="grey" stroke="grey" stroke-width="2" points="986.14,-15.77 976.01,-18.88 985.87,-22.76 986.14,-15.77"/>
</g>
<!-- 16 -->
<g id="node17" class="node">
<title>16</title>
<path fill="none" stroke="#56c9d8" stroke-width="2" d="M1162,-484C1162,-484 1110,-484 1110,-484 1104,-484 1098,-478 1098,-472 1098,-472 1098,-460 1098,-460 1098,-454 1104,-448 1110,-448 1110,-448 1162,-448 1162,-448 1168,-448 1174,-454 1174,-460 1174,-460 1174,-472 1174,-472 1174,-478 1168,-484 1162,-484"/>
<text text-anchor="middle" x="1136" y="-463.5" font-family="sans" font-size="10.00">filter_empty</text>
</g>
<!-- 13&#45;&gt;16 -->
<g id="edge30" class="edge">
<title>13&#45;&gt;16</title>
<path fill="none" stroke="grey" stroke-width="2" d="M1086.31,-519.7C1094.31,-511.22 1104.07,-500.86 1112.82,-491.58"/>
<polygon fill="grey" stroke="grey" stroke-width="2" points="1115.56,-493.78 1119.87,-484.1 1110.47,-488.98 1115.56,-493.78"/>
</g>
<!-- 19 -->
<g id="node20" class="node">
<title>19</title>
<path fill="none" stroke="#78d856" stroke-width="2" d="M1129,-412C1129,-412 1099,-412 1099,-412 1093,-412 1087,-406 1087,-400 1087,-400 1087,-388 1087,-388 1087,-382 1093,-376 1099,-376 1099,-376 1129,-376 1129,-376 1135,-376 1141,-382 1141,-388 1141,-388 1141,-400 1141,-400 1141,-406 1135,-412 1129,-412"/>
<text text-anchor="middle" x="1114" y="-391.5" font-family="sans" font-size="10.00">qc</text>
</g>
<!-- 13&#45;&gt;19 -->
<g id="edge35" class="edge">
<title>13&#45;&gt;19</title>
<path fill="none" stroke="grey" stroke-width="2" d="M1072.44,-519.96C1075.31,-501.81 1080.76,-472.4 1089,-448 1091.99,-439.13 1096.06,-429.79 1100.05,-421.47"/>
<polygon fill="grey" stroke="grey" stroke-width="2" points="1103.32,-422.76 1104.62,-412.25 1097.05,-419.65 1103.32,-422.76"/>
</g>
<!-- 14&#45;&gt;0 -->
<g id="edge5" class="edge">
<title>14&#45;&gt;0</title>
<path fill="none" stroke="grey" stroke-width="2" d="M766.94,-447.68C759.64,-421.11 747,-368.56 747,-323 747,-323 747,-323 747,-169 747,-123.02 749.74,-103.75 783,-72 818.05,-38.54 874.23,-26.2 911.38,-21.65"/>
<polygon fill="grey" stroke="grey" stroke-width="2" points="912.22,-25.08 921.78,-20.52 911.46,-18.12 912.22,-25.08"/>
</g>
<!-- 14&#45;&gt;17 -->
<g id="edge32" class="edge">
<title>14&#45;&gt;17</title>
<path fill="none" stroke="grey" stroke-width="2" d="M780.16,-447.7C783.91,-439.73 788.45,-430.1 792.62,-421.26"/>
<polygon fill="grey" stroke="grey" stroke-width="2" points="795.84,-422.64 796.94,-412.1 789.51,-419.66 795.84,-422.64"/>
</g>
<!-- 15&#45;&gt;0 -->
<g id="edge6" class="edge">
<title>15&#45;&gt;0</title>
<path fill="none" stroke="grey" stroke-width="2" d="M1005.12,-447.74C1013.03,-413.65 1030.08,-335.13 1036,-268 1037.4,-252.06 1036.27,-248 1036,-232 1035.33,-192.87 1037.93,-182.82 1033,-144 1028.87,-111.48 1034.52,-99.71 1017,-72 1008.89,-59.17 996.54,-48.19 984.58,-39.61"/>
<polygon fill="grey" stroke="grey" stroke-width="2" points="986.24,-36.51 976,-33.79 982.31,-42.3 986.24,-36.51"/>
</g>
<!-- 15&#45;&gt;18 -->
<g id="edge34" class="edge">
<title>15&#45;&gt;18</title>
<path fill="none" stroke="grey" stroke-width="2" d="M989.88,-447.7C984.64,-439.56 978.3,-429.69 972.52,-420.7"/>
<polygon fill="grey" stroke="grey" stroke-width="2" points="975.35,-418.62 967,-412.1 969.46,-422.41 975.35,-418.62"/>
</g>
<!-- 16&#45;&gt;0 -->
<g id="edge7" class="edge">
<title>16&#45;&gt;0</title>
<path fill="none" stroke="grey" stroke-width="2" d="M1142.68,-447.81C1152.32,-421.4 1169,-369.06 1169,-323 1169,-323 1169,-323 1169,-169 1169,-122.7 1165.18,-103.23 1131,-72 1090.77,-35.24 1026.44,-23.86 986.02,-20.41"/>
<polygon fill="grey" stroke="grey" stroke-width="2" points="986.26,-16.92 976.04,-19.67 985.75,-23.9 986.26,-16.92"/>
</g>
<!-- 16&#45;&gt;19 -->
<g id="edge36" class="edge">
<title>16&#45;&gt;19</title>
<path fill="none" stroke="grey" stroke-width="2" d="M1130.56,-447.7C1128.11,-439.9 1125.16,-430.51 1122.43,-421.83"/>
<polygon fill="grey" stroke="grey" stroke-width="2" points="1125.71,-420.59 1119.38,-412.1 1119.04,-422.69 1125.71,-420.59"/>
</g>
<!-- 17&#45;&gt;0 -->
<g id="edge8" class="edge">
<title>17&#45;&gt;0</title>
<path fill="none" stroke="grey" stroke-width="2" d="M800.95,-375.62C795.11,-348.97 785,-296.31 785,-251 785,-251 785,-251 785,-169 785,-124.59 779.53,-105.22 809,-72 835.27,-42.4 879.82,-29.26 911.62,-23.47"/>
<polygon fill="grey" stroke="grey" stroke-width="2" points="912.57,-26.86 921.86,-21.78 911.43,-19.96 912.57,-26.86"/>
</g>
<!-- 20 -->
<g id="node21" class="node">
<title>20</title>
<path fill="none" stroke="#567bd8" stroke-width="2" d="M995.5,-340C995.5,-340 960.5,-340 960.5,-340 954.5,-340 948.5,-334 948.5,-328 948.5,-328 948.5,-316 948.5,-316 948.5,-310 954.5,-304 960.5,-304 960.5,-304 995.5,-304 995.5,-304 1001.5,-304 1007.5,-310 1007.5,-316 1007.5,-316 1007.5,-328 1007.5,-328 1007.5,-334 1001.5,-340 995.5,-340"/>
<text text-anchor="middle" x="978" y="-325" font-family="sans" font-size="10.00">doublets</text>
<text text-anchor="middle" x="978" y="-314" font-family="sans" font-size="10.00">lane: 1</text>
</g>
<!-- 17&#45;&gt;20 -->
<g id="edge37" class="edge">
<title>17&#45;&gt;20</title>
<path fill="none" stroke="grey" stroke-width="2" d="M832.03,-382.06C860.62,-370.49 906.02,-352.13 938.59,-338.94"/>
<polygon fill="grey" stroke="grey" stroke-width="2" points="940.3,-342.03 948.26,-335.03 937.68,-335.54 940.3,-342.03"/>
</g>
<!-- 18&#45;&gt;0 -->
<g id="edge9" class="edge">
<title>18&#45;&gt;0</title>
<path fill="none" stroke="grey" stroke-width="2" d="M934.44,-375.78C906.41,-351.28 861,-303.5 861,-251 861,-251 861,-251 861,-169 861,-124.98 857.77,-109.39 881,-72 889.01,-59.11 901.34,-48.12 913.32,-39.54"/>
<polygon fill="grey" stroke="grey" stroke-width="2" points="915.58,-42.23 921.9,-33.73 911.66,-36.43 915.58,-42.23"/>
</g>
<!-- 18&#45;&gt;20 -->
<g id="edge38" class="edge">
<title>18&#45;&gt;20</title>
<path fill="none" stroke="grey" stroke-width="2" d="M961.44,-375.7C963.89,-367.9 966.84,-358.51 969.57,-349.83"/>
<polygon fill="grey" stroke="grey" stroke-width="2" points="972.96,-350.69 972.62,-340.1 966.29,-348.59 972.96,-350.69"/>
</g>
<!-- 19&#45;&gt;0 -->
<g id="edge10" class="edge">
<title>19&#45;&gt;0</title>
<path fill="none" stroke="grey" stroke-width="2" d="M1117.44,-375.59C1122.41,-348.9 1131,-296.19 1131,-251 1131,-251 1131,-251 1131,-169 1131,-124.59 1137.1,-104.65 1107,-72 1075.76,-38.12 1022.23,-25.88 986.24,-21.47"/>
<polygon fill="grey" stroke="grey" stroke-width="2" points="986.45,-17.97 976.14,-20.38 985.7,-24.93 986.45,-17.97"/>
</g>
<!-- 19&#45;&gt;20 -->
<g id="edge39" class="edge">
<title>19&#45;&gt;20</title>
<path fill="none" stroke="grey" stroke-width="2" d="M1086.81,-379C1066.64,-368.62 1038.87,-354.33 1016.44,-342.79"/>
<polygon fill="grey" stroke="grey" stroke-width="2" points="1018,-339.65 1007.5,-338.19 1014.79,-345.87 1018,-339.65"/>
</g>
<!-- 20&#45;&gt;0 -->
<g id="edge11" class="edge">
<title>20&#45;&gt;0</title>
<path fill="none" stroke="grey" stroke-width="2" d="M997.04,-303.84C1006.18,-294.3 1016.17,-281.62 1021,-268 1026.35,-252.92 1021.73,-247.98 1021,-232 1017.74,-160.1 1029.15,-135.88 996,-72 990.71,-61.8 983.02,-51.99 975.39,-43.64"/>
<polygon fill="grey" stroke="grey" stroke-width="2" points="977.92,-41.22 968.47,-36.42 972.86,-46.06 977.92,-41.22"/>
</g>
<!-- 21 -->
<g id="node22" class="node">
<title>21</title>
<path fill="none" stroke="#59d856" stroke-width="2" d="M1000,-268C1000,-268 956,-268 956,-268 950,-268 944,-262 944,-256 944,-256 944,-244 944,-244 944,-238 950,-232 956,-232 956,-232 1000,-232 1000,-232 1006,-232 1012,-238 1012,-244 1012,-244 1012,-256 1012,-256 1012,-262 1006,-268 1000,-268"/>
<text text-anchor="middle" x="978" y="-247.5" font-family="sans" font-size="10.00">dim_reduc</text>
</g>
<!-- 20&#45;&gt;21 -->
<g id="edge40" class="edge">
<title>20&#45;&gt;21</title>
<path fill="none" stroke="grey" stroke-width="2" d="M978,-303.7C978,-295.98 978,-286.71 978,-278.11"/>
<polygon fill="grey" stroke="grey" stroke-width="2" points="981.5,-278.1 978,-268.1 974.5,-278.1 981.5,-278.1"/>
</g>
<!-- 21&#45;&gt;0 -->
<g id="edge12" class="edge">
<title>21&#45;&gt;0</title>
<path fill="none" stroke="grey" stroke-width="2" d="M986.31,-231.79C990.74,-221.63 995.74,-208.38 998,-196 1002.15,-173.26 1001.56,-166.84 998,-144 992.42,-108.22 975.57,-69.82 963.18,-45.17"/>
<polygon fill="grey" stroke="grey" stroke-width="2" points="966.2,-43.4 958.51,-36.12 959.98,-46.61 966.2,-43.4"/>
</g>
<!-- 22 -->
<g id="node23" class="node">
<title>22</title>
<path fill="none" stroke="#d8a456" stroke-width="2" d="M977,-188C977,-188 947,-188 947,-188 941,-188 935,-182 935,-176 935,-176 935,-164 935,-164 935,-158 941,-152 947,-152 947,-152 977,-152 977,-152 983,-152 989,-158 989,-164 989,-164 989,-176 989,-176 989,-182 983,-188 977,-188"/>
<text text-anchor="middle" x="962" y="-167.5" font-family="sans" font-size="10.00">cluster</text>
</g>
<!-- 21&#45;&gt;22 -->
<g id="edge41" class="edge">
<title>21&#45;&gt;22</title>
<path fill="none" stroke="grey" stroke-width="2" d="M974.45,-231.69C972.44,-221.89 969.88,-209.42 967.61,-198.33"/>
<polygon fill="grey" stroke="grey" stroke-width="2" points="970.98,-197.36 965.54,-188.26 964.12,-198.76 970.98,-197.36"/>
</g>
<!-- 22&#45;&gt;0 -->
<g id="edge13" class="edge">
<title>22&#45;&gt;0</title>
<path fill="none" stroke="grey" stroke-width="2" d="M962.6,-151.77C963.05,-132.32 963.14,-99.78 960,-72 959.03,-63.46 957.36,-54.27 955.6,-45.97"/>
<polygon fill="grey" stroke="grey" stroke-width="2" points="958.98,-45.05 953.37,-36.06 952.15,-46.58 958.98,-45.05"/>
</g>
<!-- 23 -->
<g id="node24" class="node">
<title>23</title>
<path fill="none" stroke="#56d87b" stroke-width="2" d="M938.5,-108C938.5,-108 901.5,-108 901.5,-108 895.5,-108 889.5,-102 889.5,-96 889.5,-96 889.5,-84 889.5,-84 889.5,-78 895.5,-72 901.5,-72 901.5,-72 938.5,-72 938.5,-72 944.5,-72 950.5,-78 950.5,-84 950.5,-84 950.5,-96 950.5,-96 950.5,-102 944.5,-108 938.5,-108"/>
<text text-anchor="middle" x="920" y="-87.5" font-family="sans" font-size="10.00">densities</text>
</g>
<!-- 22&#45;&gt;23 -->
<g id="edge42" class="edge">
<title>22&#45;&gt;23</title>
<path fill="none" stroke="grey" stroke-width="2" d="M952.68,-151.69C947.24,-141.59 940.27,-128.65 934.17,-117.31"/>
<polygon fill="grey" stroke="grey" stroke-width="2" points="937.12,-115.41 929.3,-108.26 930.95,-118.73 937.12,-115.41"/>
</g>
<!-- 23&#45;&gt;0 -->
<g id="edge14" class="edge">
<title>23&#45;&gt;0</title>
<path fill="none" stroke="grey" stroke-width="2" d="M927.17,-71.7C930.43,-63.81 934.37,-54.3 938,-45.55"/>
<polygon fill="grey" stroke="grey" stroke-width="2" points="941.32,-46.68 941.91,-36.1 934.85,-44 941.32,-46.68"/>
</g>
</g>
</svg>
